{"title":"Max Stardust Awards 2012--26th February 2012 XviD","uid":7060745,"size":1519226578,"categoryP":"video","categoryS":"tv_shows","magnet":"?xt=urn:btih:9fd495340e1b0bac95b78294b4880819d5227a6a&amp;dn=Max+Stardust+Awards+2012--26th+February+2012+XviD&amp;tr=udp%3A%2F%2Ftracker.openbittorrent.com%3A80&amp;tr=udp%3A%2F%2Fopen.demonii.com%3A1337&amp;tr=udp%3A%2F%2Ftracker.coppersurfer.tk%3A6969&amp;tr=udp%3A%2F%2Fexodus.desync.com%3A6969","seeders":0,"leechers":1,"uploader":"arsenal_rocks","files":2,"time":1330338872,"description":"General\nComplete name                            : MAX Stardust Awards 2012 XviD.avi\nFormat                                   : AVI\nFormat/Info                              : Audio Video Interleave\nFormat profile                           : OpenDML\nFile size                                : 1.41 GiB\nDuration                                 : 2h 34mn\nOverall bit rate                         : 1 311 Kbps\nWriting application                      : Lavf52.32.0\n\nVideo\nID                                       : 0\nFormat                                   : MPEG-4 Visual\nFormat profile                           : Simple@L3\nFormat settings, BVOP                    : No\nFormat settings, QPel                    : No\nFormat settings, GMC                     : No warppoints\nFormat settings, Matrix                  : Default (H.263)\nCodec ID                                 : DIVX\nCodec ID/Info                            : Project Mayo\nCodec ID/Hint                            : DivX 4\nDuration                                 : 2h 34mn\nBit rate                                 : 1 200 Kbps\nWidth                                    : 512 pixels\nHeight                                   : 384 pixels\nDisplay aspect ratio                     : 4:3\nFrame rate                               : 30.000 fps\nColor space                              : YUV\nChroma subsampling                       : 4:2:0\nBit depth                                : 8 bits\nScan type                                : Progressive\nCompression mode                         : Lossy\nBits/(Pixel*Frame)                       : 0.203\nStream size                              : 1.29 GiB (92%)\nWriting library                          : XviD 1.1.2 (UTC 2006-11-01)\n\nAudio\nID                                       : 1\nFormat                                   : MPEG Audio\nFormat version                           : Version 1\nFormat profile                           : Layer 3\nMode                                     : Joint stereo\nMode extension                           : MS Stereo\nCodec ID                                 : 55\nCodec ID/Hint                            : MP3\nDuration                                 : 2h 34mn\nBit rate mode                            : Constant\nBit rate                                 : 96.0 Kbps\nChannel(s)                               : 2 channels\nSampling rate                            : 44.1 KHz\nCompression mode                         : Lossy\nStream size                              : 106 MiB (7%)\nAlignment                                : Aligned on interleaves\nInterleave, duration                     : 26 ms (0.78 video frame)\nWriting library                          : LAME3.98\nLanguage\t\t\t\t : Hindi\n &lt;a href=&quot;\nhttp://img861.imageshack.us/img861/765/75122540.jpg&quot; rel=&quot;nofollow&quot; target=&quot;_NEW&quot;&gt;\nhttp://img861.imageshack.us/img861/765/75122540.jpg&lt;/a&gt;","torrent":{"xt":"urn:btih:9fd495340e1b0bac95b78294b4880819d5227a6a","amp;dn":"Max+Stardust+Awards+2012--26th+February+2012+XviD","amp;tr":["udp%3A%2F%2Ftracker.openbittorrent.com%3A80","udp%3A%2F%2Fopen.demonii.com%3A1337","udp%3A%2F%2Ftracker.coppersurfer.tk%3A6969","udp%3A%2F%2Fexodus.desync.com%3A6969"],"infoHash":"9fd495340e1b0bac95b78294b4880819d5227a6a","infoHashBuffer":{"type":"Buffer","data":[159,212,149,52,14,27,11,172,149,183,130,148,180,136,8,25,213,34,122,106]},"announce":[],"urlList":[]}}